{"title":"Kumki (2012) Tamil Movie DVDscr x264 - Exclusive","uid":7928008,"size":528191451,"categoryP":"video","categoryS":"movies","magnet":"?xt=urn:btih:f4d237472fa08cc269adf5110ba2cd4c086457c0&amp;dn=Kumki+%282012%29+Tamil+Movie+DVDscr+x264+-+Exclusive&amp;tr=udp%3A%2F%2Ftracker.openbittorrent.com%3A80&amp;tr=udp%3A%2F%2Fopen.demonii.com%3A1337&amp;tr=udp%3A%2F%2Ftracker.coppersurfer.tk%3A6969&amp;tr=udp%3A%2F%2Fexodus.desync.com%3A6969","seeders":1,"leechers":0,"uploader":"tykoon123","files":-1,"time":1355632569,"description":"Poster: &lt;a href=&quot;\nhttp://www.shotpix.com/images/65933281849067547421.jpg&quot; rel=&quot;nofollow&quot; target=&quot;_NEW&quot;&gt;\nhttp://www.shotpix.com/images/65933281849067547421.jpg&lt;/a&gt;\n\nInfo:\n\nFormat : Matroska\nFormat version : Version 1\nFile size : 504 MiB\nDuration : 2h 24mn\nOverall bit rate : 487 Kbps\nWriting application : HandBrake 0.9.3\n\nVideo\nID : 1\nFormat : AVC\nFormat/Info : Advanced Video Codec\nFormat profile : &lt;a class=&quot;__cf_email__&quot; href=&quot;/cdn-cgi/l/email-protection&quot; data-cfemail=&quot;abe6cac2c5ebe799859a&quot;&gt;[email&amp;#160;protected]&lt;/a&gt;&lt;script cf-hash='f9e31' type=&quot;text/javascript&quot;&gt;\n/* &lt;![CDATA[ */!function(){try{var t=&quot;currentScript&quot;in document?document.currentScript:function(){for(var t=document.getElementsByTagName(&quot;script&quot;),e=t.length;e--;)if(t[e].getAttribute(&quot;cf-hash&quot;))return t[e]}();if(t&amp;&amp;t.previousSibling){var e,r,n,i,c=t.previousSibling,a=c.getAttribute(&quot;data-cfemail&quot;);if(a){for(e=&quot;&quot;,r=parseInt(a.substr(0,2),16),n=2;a.length-n;n+=2)i=parseInt(a.substr(n,2),16)^r,e+=String.fromCharCode(i);e=document.createTextNode(e),c.parentNode.replaceChild(e,c)}}}catch(u){}}();/* ]]&gt; */&lt;/script&gt;\nFormat settings, CABAC : Yes\nFormat settings, ReFrames : 1 frame\nCodec ID : V_MPEG4/ISO/AVC\nDuration : 2h 24mn\nBit rate : 322 Kbps\nWidth : 608 pixels\nHeight : 256 pixels\nDisplay aspect ratio : 2.40:1\nFrame rate mode : Variable\nFrame rate : 29.970 fps\nColor space : YUV\nChroma subsampling : 4:2:0\nBit depth : 8 bits\nScan type : Progressive\nBits/(Pixel*Frame) : 0.069\nStream size : 328 MiB (65%)\nWriting library : x264 core 65\nLanguage : Tamil\nDefault : Yes\nForced : No\nColor primaries : BT.601-6 525, BT.1358 525, BT.1700 NTSC, SMPTE 170M\nTransfer characteristics : BT.709-5, BT.1361\nMatrix coefficients : BT.601-6 525, BT.1358 525, BT.1700 NTSC, SMPTE 170M\n\nAudio\nID : 2\nFormat : MPEG Audio\nFormat version : Version 1\nFormat profile : Layer 3\nMode : Joint stereo\nCodec ID : A_MPEG/L3\nCodec ID/Hint : MP3\nDuration : 2h 24mn\nBit rate mode : Constant\nBit rate : 160 Kbps\nChannel(s) : 2 channels\nSampling rate : 48.0 KHz\nCompression mode : Lossy\nStream size : 166 MiB (33%)\nLanguage : English\nDefault : Yes\nForced : No\n\nScreens:\n &lt;a href=&quot;\nhttp://www.shotpix.com/images/74276464711444317747.jpg&quot; rel=&quot;nofollow&quot; target=&quot;_NEW&quot;&gt;\nhttp://www.shotpix.com/images/74276464711444317747.jpg&lt;/a&gt;","torrent":{"xt":"urn:btih:f4d237472fa08cc269adf5110ba2cd4c086457c0","amp;dn":"Kumki+%282012%29+Tamil+Movie+DVDscr+x264+-+Exclusive","amp;tr":["udp%3A%2F%2Ftracker.openbittorrent.com%3A80","udp%3A%2F%2Fopen.demonii.com%3A1337","udp%3A%2F%2Ftracker.coppersurfer.tk%3A6969","udp%3A%2F%2Fexodus.desync.com%3A6969"],"infoHash":"f4d237472fa08cc269adf5110ba2cd4c086457c0","infoHashBuffer":{"type":"Buffer","data":[244,210,55,71,47,160,140,194,105,173,245,17,11,162,205,76,8,100,87,192]},"announce":[],"urlList":[]}}